<svg xmlns="http://www.w3.org/2000/svg" version="1.0" viewBox="0 0 2048 2048">
  <defs>
    <mask id="logoMask">
      <rect width="2048" height="2048" fill="white"/>
      <path fill="black" d="M512 1024v512h1024V512H512zm604.7-355.7c-31.5 20.7-83.2 60.9-121.2 94.2-27.4 24-76.5 71.9-104 101.5-32.6 35.1-76.5 90.5-109.3 138-38.6 55.9-60.9 105.7-66.2 148.5-3.8 29.9 3.7 62.2 18.1 77.9 2.8 3.1 4.8 5.6 4.4 5.6s-5.5-2.5-11.4-5.5c-25.4-13.3-48.4-38.7-57.8-63.7-6.4-16.8-7.7-25-7.8-46.3 0-16.4.3-20.4 2.3-29.5 7.7-34.4 25.2-69.5 52.9-106.4 59.6-79.3 198.2-202.1 296.8-262.8 29.5-18.3 60.2-34.4 90-47.4 11.4-5 17.4-6.9 13.2-4.1M850 717.5c1.6.8 3.1 2.3 3.4 3.2.3 1 1.5 9 2.6 17.8 1.5 12 2.4 16.4 3.7 17.6 1 1 5.6 3.3 10.3 5.2 4.7 2 11.6 4.9 15.3 6.7l6.9 3.1-8.4 6.3c-4.5 3.5-13.9 10.8-20.7 16.3l-12.3 10-6.7-1.5c-9.2-2-29.5-1.9-39.6.3-30.5 6.5-56.5 27.1-71 56-7 14.1-9.5 23.7-10.2 39-.5 10.8.9 24.4 3.2 30.8.3.6-4 6.8-9.5 13.7s-12.8 16.4-16.2 21.2-6.4 8.5-6.8 8.3-3.8-7.2-7.5-15.6c-3.9-8.6-7.8-15.7-8.9-16.4-1.2-.7-8.3-2.3-16-3.4-13.4-2.1-17.3-3.2-18.8-5.5-1.2-1.7-1-57.4.2-59.5 1.1-2.1 3.2-2.6 21.8-5.1 14.6-1.9 16.4-2.8 18.3-8.9.6-2 3.4-8.9 6.1-15.4 4.1-9.7 4.8-12.3 4-14-.6-1.2-4.5-6.5-8.7-11.7-10.1-12.6-12-15.7-10.9-18 .5-1 10-11.1 21.1-22.4 18.8-19.2 20.4-20.6 23.7-20.6 2.9 0 6.5 1.9 17.3 9 7.5 4.9 14.2 9 14.8 9 .7 0 4.8-1.6 9.1-3.6 4.4-2 11.3-4.9 15.4-6.5 10.4-4.1 11.2-5.3 13.4-19 2.7-17.7 3.7-22.7 5.1-24.6 1.8-2.4 8-3 32.3-3.2 17.1-.1 21.9.2 24.2 1.4m111.7 136.8c1.7 3.9 4.2 8 5.5 8.9 1.6 1.2 7.3 2.3 18.2 3.7 11.4 1.4 16.3 2.5 17.7 3.7 1.8 1.6 1.9 3.5 1.9 29.9 0 34.2.7 32.5-12.7 34.8-4.9.9-11.5 1.9-14.8 2.3-7.7.9-10.9 2.5-12.5 6.6-.7 1.8-4 9.3-7.2 16.6l-6 13.4 3.5 5.1c2 2.9 6.3 9.2 9.6 14 9.5 13.8 10.1 12.3-13.7 36-18.1 18-20.1 19.7-23.3 19.7-2.6 0-6.5-2-16.4-8.5-7.1-4.7-14.1-8.5-15.3-8.5-1.3 0-7.4 2-13.5 4.3-6.2 2.4-13.3 5.1-15.8 6.1-5.8 2.1-6.1 2.8-9.4 22.6-2 11.7-3.1 16-4.6 17.5-1.8 1.9-3.5 2-26.7 2.3-13.6.2-26.1.1-27.9-.3-1.9-.3-4-1.6-4.8-2.9-.8-1.2-2.2-7.6-3.1-14.2-.8-6.5-2.1-14.5-2.8-17.8l-1.3-5.8 7.6-12.2c4.2-6.7 10-15.5 12.9-19.5l5.2-7.4 12.7-.3c26.8-.5 48.1-9.5 68.2-28.9 13.7-13.3 23.6-29.8 28.2-47.2 2.6-9.9 3.6-29.4 2-38.8l-1.2-6.9 17.8-17.8c9.8-9.8 18-17.8 18.3-17.8s1.9 3.3 3.7 7.3m417.8 274.7c28 4 49 20.8 55 43.9.9 3.5 1.4 6.5 1.2 6.8-.6.5-31.3 5.2-34.4 5.3-1.6 0-2.4-.9-3.3-3.4-2.1-6.4-7.5-12.2-14.5-15.7-5.5-2.7-7.9-3.3-15.9-3.7-19.3-1-29.9 7-30 22.5-.1 10.6 3.8 13.8 24.9 20.4 43.9 13.7 53.2 17.6 62.7 26.7 9.9 9.4 13.5 20.5 12.5 38.5-1 18.1-7.5 30.8-21.1 41.1-12.9 9.7-25.1 13.5-45.5 14.3-20.9.8-34.8-2.2-48.9-10.5-14.5-8.6-28-27.6-29.4-41.2l-.3-3.5 14-2.1c7.7-1.1 16.1-2.4 18.6-2.8l4.6-.7 2.2 5.9c2.3 6.5 8.2 13.8 13.7 17.2 7.9 4.9 24.8 6.6 35.3 3.4 6-1.7 12.3-7 15.2-12.5 2.3-4.6 2.6-13.8.5-17.7-3.9-7.5-9.8-10.4-39.6-19.7-34.5-10.8-44-15.8-51.2-26.7-5.8-8.8-7.3-14.6-7.2-28.3 0-9.7.5-13.2 2.3-18.4q7.35-21.15 29.1-32.1c13.5-6.8 32.1-9.4 49.5-7m-173.8 1.6c38.5 7.9 63.1 35.8 69.4 78.5 1.6 11.3.6 36.8-2 47.9-7.9 34.4-28.6 57.8-58.2 65.9-13.9 3.8-37 4.4-50.9 1.2-27.5-6.2-48.4-24.7-58.5-51.6-8.2-21.6-9.8-53.7-3.9-77.3 8.3-33.2 32.9-57.6 64.9-64.7 8.5-1.9 29.9-1.9 39.2.1m-324.2 3.8c11.9 3 22.2 8.6 29.1 15.8 7.8 8.1 10.9 13.6 13.4 23.3 7.2 28-5 60.8-26.4 71.4-3.5 1.7-6.9 3.1-7.5 3.1-1.6 0-1.4.5 1.2 4.8 1.3 2 7 12 12.7 22.2s14.1 25.1 18.6 33.2l8.3 14.8h-44.4l-5.3-10.3c-2.9-5.6-11.2-21.6-18.5-35.5l-13.2-25.2H824v71h-40v-191.2l45.3.5c38.6.3 46.2.7 52.2 2.1m208.5 16.1v18.5h-52v154h-41v-154h-53v-37h146z"/>
      <path fill="black" d="M1172.5 1165.7c-16.4 5.9-27.6 19.5-32.2 39-2.8 12.1-2.5 39 .6 50 5.3 18.8 18.1 32.5 34.6 36.8 22 5.7 43.4-4.3 53.1-25 6-12.6 6.9-17.8 6.9-39 0-17.1-.2-19.7-2.3-26.5-5.1-16.2-13.9-27.1-26.9-33.3-6.2-2.9-7.8-3.2-17.8-3.5-8.6-.2-12.1.2-16 1.5M824 1193v27.2l20.8-.5c12.3-.2 22.2-.9 24.5-1.6 5-1.6 11.5-7.6 13.8-12.6 2.1-4.5 2.5-14.8.9-20.7-1.8-6.2-6.9-12-13.5-15.3-6-3-6.1-3-26.2-3.4l-20.3-.3z"/>
    </mask>
  </defs>
  <rect width="2048" height="2048" fill="#002d61"/>
  <rect width="2048" height="2048" fill="white" mask="url(#logoMask)"/>
</svg>